<?xml version="1.0" encoding="utf-8"?>
<!-- Generator: Adobe Illustrator 17.1.0, SVG Export Plug-In . SVG Version: 6.00 Build 0)  -->
<!DOCTYPE svg PUBLIC "-//W3C//DTD SVG 1.1//EN" "http://www.w3.org/Graphics/SVG/1.1/DTD/svg11.dtd">
<svg version="1.1" id="Layer_1" xmlns="http://www.w3.org/2000/svg" xmlns:xlink="http://www.w3.org/1999/xlink" x="0px" y="0px"
	 width="100px" height="100px" viewBox="0 0 100 100" enable-background="new 0 0 100 100" xml:space="preserve">
<g>
	<path fill="#231F20" d="M59.7,42.4c-4.1,0-7.1,2.6-8.2,4.6H51v-4h-7v27h8V56.6c0-3.5,0.5-6.9,4.8-6.9c4.3,0,4.2,4,4.2,7.2V70h9
		V55.1C70,47.8,68.2,42.4,59.7,42.4z"/>
	<path fill="#231F20" d="M33.9,29.5c-2.7,0-4.9,2.2-4.9,4.9c0,2.7,2.2,4.9,4.9,4.9c2.7,0,4.9-2.2,4.9-4.9
		C38.8,31.7,36.6,29.5,33.9,29.5z"/>
	<rect x="30" y="43" fill="#231F20" width="8" height="27"/>
	<path fill="#231F20" d="M49.6,2.5C23.4,2.5,2.1,23.8,2.1,50c0,26.2,21.3,47.5,47.5,47.5c26.2,0,47.5-21.3,47.5-47.5
		C97.1,23.8,75.8,2.5,49.6,2.5z M78,74.2c0,2.3-2,3.8-4.3,3.8H25.5c-2.3,0-4.5-1.5-4.5-3.8V25.8c0-2.3,2.2-3.8,4.5-3.8h48.3
		c2.3,0,4.3,1.5,4.3,3.8V74.2z"/>
</g>
</svg>
