<?xml version="1.0" encoding="utf-8"?>
<!-- Generator: Adobe Illustrator 17.1.0, SVG Export Plug-In . SVG Version: 6.00 Build 0)  -->
<!DOCTYPE svg PUBLIC "-//W3C//DTD SVG 1.1//EN" "http://www.w3.org/Graphics/SVG/1.1/DTD/svg11.dtd">
<svg version="1.1" id="Layer_1" xmlns="http://www.w3.org/2000/svg" xmlns:xlink="http://www.w3.org/1999/xlink" x="0px" y="0px"
	 width="100px" height="100px" viewBox="0 0 100 100" enable-background="new 0 0 100 100" xml:space="preserve">
<path fill="#231F20" d="M75.9,36.2c0,0.6,0,1.1,0,1.7c0,17.4-13.3,37.5-37.5,37.5c-7.4,0-14.4-2.2-20.2-5.9c1,0.1,2.1,0.2,3.1,0.2
	c6.2,0,11.9-2.1,16.4-5.6c-5.8-0.1-10.6-3.9-12.3-9.2c0.8,0.2,1.6,0.2,2.5,0.2c1.2,0,2.4-0.2,3.5-0.5c-6-1.2-10.6-6.5-10.6-12.9
	c0-0.1,0-0.1,0-0.2c1.8,1,3.8,1.6,6,1.7c-3.5-2.4-5.9-6.4-5.9-11c0-2.4,0.6-4.7,1.8-6.6c6.5,8,16.2,13.2,27.2,13.8
	c-0.2-1-0.3-2-0.3-3c0-7.3,5.9-13.2,13.2-13.2c3.8,0,7.2,1.6,9.6,4.2c3-0.6,5.8-1.7,8.4-3.2c-1,3.1-3.1,5.7-5.8,7.3
	c2.7-0.3,5.2-1,7.6-2.1C80.7,32,78.5,34.3,75.9,36.2 M50,2.5C23.8,2.5,2.5,23.8,2.5,50c0,26.2,21.3,47.5,47.5,47.5
	S97.5,76.2,97.5,50C97.5,23.8,76.2,2.5,50,2.5"/>
</svg>
